<mxfile host="app.diagrams.net" agent="Mozilla/5.0 (Windows NT 10.0; Win64; x64) AppleWebKit/537.36 (KHTML, like Gecko) Chrome/128.0.0.0 Safari/537.36" version="24.7.16">
  <diagram id="R2lEEEUBdFMjLlhIrx00" name="Page-1">
    <mxGraphModel dx="2524" dy="780" grid="1" gridSize="10" guides="1" tooltips="1" connect="1" arrows="1" fold="1" page="1" pageScale="1" pageWidth="850" pageHeight="1100" math="0" shadow="0" extFonts="Permanent Marker^https://fonts.googleapis.com/css?family=Permanent+Marker">
      <root>
        <mxCell id="0" />
        <mxCell id="1" parent="0" />
        <mxCell id="FF8oIaPpPTEZRq6Hy1B0-1" value="ALUNO" style="whiteSpace=wrap;html=1;align=center;" parent="1" vertex="1">
          <mxGeometry x="200" y="130" width="100" height="40" as="geometry" />
        </mxCell>
        <mxCell id="FF8oIaPpPTEZRq6Hy1B0-8" value="E-mail" style="ellipse;whiteSpace=wrap;html=1;align=center;" parent="1" vertex="1">
          <mxGeometry x="70" y="130" width="100" height="40" as="geometry" />
        </mxCell>
        <mxCell id="FF8oIaPpPTEZRq6Hy1B0-9" value="Idade" style="ellipse;whiteSpace=wrap;html=1;align=center;" parent="1" vertex="1">
          <mxGeometry x="80" y="80" width="100" height="40" as="geometry" />
        </mxCell>
        <mxCell id="FF8oIaPpPTEZRq6Hy1B0-10" value="Status Plano" style="ellipse;whiteSpace=wrap;html=1;align=center;" parent="1" vertex="1">
          <mxGeometry x="130" y="40" width="100" height="40" as="geometry" />
        </mxCell>
        <mxCell id="FF8oIaPpPTEZRq6Hy1B0-11" value="Histórico" style="ellipse;whiteSpace=wrap;html=1;align=center;" parent="1" vertex="1">
          <mxGeometry x="240" y="40" width="100" height="40" as="geometry" />
        </mxCell>
        <mxCell id="FF8oIaPpPTEZRq6Hy1B0-12" value="Progresso em cada curso" style="ellipse;whiteSpace=wrap;html=1;align=center;" parent="1" vertex="1">
          <mxGeometry x="340" y="60" width="100" height="40" as="geometry" />
        </mxCell>
        <mxCell id="FF8oIaPpPTEZRq6Hy1B0-13" value="" style="endArrow=none;html=1;rounded=0;exitX=1;exitY=0.5;exitDx=0;exitDy=0;" parent="1" target="FF8oIaPpPTEZRq6Hy1B0-1" edge="1">
          <mxGeometry relative="1" as="geometry">
            <mxPoint x="180" y="200.0000000000001" as="sourcePoint" />
            <mxPoint x="410" y="199.5" as="targetPoint" />
          </mxGeometry>
        </mxCell>
        <mxCell id="FF8oIaPpPTEZRq6Hy1B0-17" value="" style="endArrow=none;html=1;rounded=0;entryX=0;entryY=0.5;entryDx=0;entryDy=0;" parent="1" target="FF8oIaPpPTEZRq6Hy1B0-1" edge="1">
          <mxGeometry relative="1" as="geometry">
            <mxPoint x="170" y="150" as="sourcePoint" />
            <mxPoint x="190" y="150" as="targetPoint" />
          </mxGeometry>
        </mxCell>
        <mxCell id="FF8oIaPpPTEZRq6Hy1B0-19" value="" style="endArrow=none;html=1;rounded=0;exitX=0.94;exitY=0.7;exitDx=0;exitDy=0;entryX=0.19;entryY=0;entryDx=0;entryDy=0;entryPerimeter=0;exitPerimeter=0;" parent="1" source="FF8oIaPpPTEZRq6Hy1B0-9" target="FF8oIaPpPTEZRq6Hy1B0-1" edge="1">
          <mxGeometry relative="1" as="geometry">
            <mxPoint x="190" y="99.5" as="sourcePoint" />
            <mxPoint x="350" y="99.5" as="targetPoint" />
          </mxGeometry>
        </mxCell>
        <mxCell id="FF8oIaPpPTEZRq6Hy1B0-21" value="" style="endArrow=none;html=1;rounded=0;exitX=1;exitY=1;exitDx=0;exitDy=0;entryX=0.5;entryY=0;entryDx=0;entryDy=0;" parent="1" source="FF8oIaPpPTEZRq6Hy1B0-10" target="FF8oIaPpPTEZRq6Hy1B0-1" edge="1">
          <mxGeometry relative="1" as="geometry">
            <mxPoint x="250" y="100" as="sourcePoint" />
            <mxPoint x="390" y="99.5" as="targetPoint" />
          </mxGeometry>
        </mxCell>
        <mxCell id="FF8oIaPpPTEZRq6Hy1B0-22" value="" style="endArrow=none;html=1;rounded=0;entryX=0.5;entryY=1;entryDx=0;entryDy=0;exitX=0.75;exitY=0;exitDx=0;exitDy=0;" parent="1" source="FF8oIaPpPTEZRq6Hy1B0-1" target="FF8oIaPpPTEZRq6Hy1B0-11" edge="1">
          <mxGeometry width="50" height="50" relative="1" as="geometry">
            <mxPoint x="360" y="210" as="sourcePoint" />
            <mxPoint x="410" y="160" as="targetPoint" />
          </mxGeometry>
        </mxCell>
        <mxCell id="FF8oIaPpPTEZRq6Hy1B0-24" value="" style="endArrow=none;html=1;rounded=0;entryX=0;entryY=1;entryDx=0;entryDy=0;" parent="1" target="FF8oIaPpPTEZRq6Hy1B0-12" edge="1">
          <mxGeometry relative="1" as="geometry">
            <mxPoint x="300" y="130" as="sourcePoint" />
            <mxPoint x="455" y="149.5" as="targetPoint" />
          </mxGeometry>
        </mxCell>
        <mxCell id="FF8oIaPpPTEZRq6Hy1B0-25" value="Recebem" style="shape=rhombus;perimeter=rhombusPerimeter;whiteSpace=wrap;html=1;align=center;" parent="1" vertex="1">
          <mxGeometry x="480" y="120" width="120" height="60" as="geometry" />
        </mxCell>
        <mxCell id="FF8oIaPpPTEZRq6Hy1B0-26" value="" style="endArrow=none;html=1;rounded=0;entryX=0;entryY=0.5;entryDx=0;entryDy=0;exitX=1;exitY=0.5;exitDx=0;exitDy=0;" parent="1" source="FF8oIaPpPTEZRq6Hy1B0-1" target="FF8oIaPpPTEZRq6Hy1B0-25" edge="1">
          <mxGeometry relative="1" as="geometry">
            <mxPoint x="330" y="150" as="sourcePoint" />
            <mxPoint x="490" y="150" as="targetPoint" />
          </mxGeometry>
        </mxCell>
        <mxCell id="FF8oIaPpPTEZRq6Hy1B0-29" value="CERTIFICADO" style="whiteSpace=wrap;html=1;align=center;" parent="1" vertex="1">
          <mxGeometry x="710" y="130" width="100" height="40" as="geometry" />
        </mxCell>
        <mxCell id="FF8oIaPpPTEZRq6Hy1B0-30" value="" style="endArrow=none;html=1;rounded=0;exitX=1;exitY=0.5;exitDx=0;exitDy=0;" parent="1" source="FF8oIaPpPTEZRq6Hy1B0-25" edge="1">
          <mxGeometry relative="1" as="geometry">
            <mxPoint x="610" y="149.5" as="sourcePoint" />
            <mxPoint x="710" y="150" as="targetPoint" />
          </mxGeometry>
        </mxCell>
        <mxCell id="FF8oIaPpPTEZRq6Hy1B0-34" value="Data de Emissão" style="ellipse;whiteSpace=wrap;html=1;align=center;" parent="1" vertex="1">
          <mxGeometry x="850" y="130" width="100" height="40" as="geometry" />
        </mxCell>
        <mxCell id="FF8oIaPpPTEZRq6Hy1B0-35" value="Cód. de Verificação" style="ellipse;whiteSpace=wrap;html=1;align=center;fontStyle=4;" parent="1" vertex="1">
          <mxGeometry x="780" y="200" width="100" height="40" as="geometry" />
        </mxCell>
        <mxCell id="FF8oIaPpPTEZRq6Hy1B0-36" value="Nome do Aluno" style="ellipse;whiteSpace=wrap;html=1;align=center;dashed=1;" parent="1" vertex="1">
          <mxGeometry x="630" y="70" width="100" height="40" as="geometry" />
        </mxCell>
        <mxCell id="FF8oIaPpPTEZRq6Hy1B0-37" value="Curso Concluído" style="ellipse;whiteSpace=wrap;html=1;align=center;dashed=1;" parent="1" vertex="1">
          <mxGeometry x="770" y="70" width="100" height="40" as="geometry" />
        </mxCell>
        <mxCell id="FF8oIaPpPTEZRq6Hy1B0-38" value="" style="endArrow=none;html=1;rounded=0;exitX=0.5;exitY=1;exitDx=0;exitDy=0;entryX=0.25;entryY=0;entryDx=0;entryDy=0;" parent="1" source="FF8oIaPpPTEZRq6Hy1B0-36" target="FF8oIaPpPTEZRq6Hy1B0-29" edge="1">
          <mxGeometry relative="1" as="geometry">
            <mxPoint x="650" y="210" as="sourcePoint" />
            <mxPoint x="810" y="210" as="targetPoint" />
          </mxGeometry>
        </mxCell>
        <mxCell id="FF8oIaPpPTEZRq6Hy1B0-39" value="" style="endArrow=none;html=1;rounded=0;exitX=0.5;exitY=1;exitDx=0;exitDy=0;entryX=0.68;entryY=-0.025;entryDx=0;entryDy=0;entryPerimeter=0;" parent="1" source="FF8oIaPpPTEZRq6Hy1B0-37" target="FF8oIaPpPTEZRq6Hy1B0-29" edge="1">
          <mxGeometry relative="1" as="geometry">
            <mxPoint x="690" y="120" as="sourcePoint" />
            <mxPoint x="745" y="140" as="targetPoint" />
          </mxGeometry>
        </mxCell>
        <mxCell id="FF8oIaPpPTEZRq6Hy1B0-40" value="" style="endArrow=none;html=1;rounded=0;exitX=0;exitY=0.5;exitDx=0;exitDy=0;" parent="1" source="FF8oIaPpPTEZRq6Hy1B0-34" edge="1">
          <mxGeometry relative="1" as="geometry">
            <mxPoint x="700" y="130" as="sourcePoint" />
            <mxPoint x="810" y="150" as="targetPoint" />
          </mxGeometry>
        </mxCell>
        <mxCell id="FF8oIaPpPTEZRq6Hy1B0-41" value="" style="endArrow=none;html=1;rounded=0;exitX=0.58;exitY=1.025;exitDx=0;exitDy=0;entryX=0.5;entryY=0;entryDx=0;entryDy=0;exitPerimeter=0;" parent="1" source="FF8oIaPpPTEZRq6Hy1B0-29" target="FF8oIaPpPTEZRq6Hy1B0-35" edge="1">
          <mxGeometry relative="1" as="geometry">
            <mxPoint x="710" y="140" as="sourcePoint" />
            <mxPoint x="765" y="160" as="targetPoint" />
          </mxGeometry>
        </mxCell>
        <mxCell id="FF8oIaPpPTEZRq6Hy1B0-42" value="Estudam" style="shape=rhombus;perimeter=rhombusPerimeter;whiteSpace=wrap;html=1;align=center;" parent="1" vertex="1">
          <mxGeometry x="360" y="260" width="120" height="60" as="geometry" />
        </mxCell>
        <mxCell id="FF8oIaPpPTEZRq6Hy1B0-43" value="" style="endArrow=none;html=1;rounded=0;entryX=1;entryY=1;entryDx=0;entryDy=0;exitX=0;exitY=0;exitDx=0;exitDy=0;" parent="1" source="FF8oIaPpPTEZRq6Hy1B0-42" target="FF8oIaPpPTEZRq6Hy1B0-1" edge="1">
          <mxGeometry relative="1" as="geometry">
            <mxPoint x="350" y="210" as="sourcePoint" />
            <mxPoint x="510" y="210" as="targetPoint" />
          </mxGeometry>
        </mxCell>
        <mxCell id="FF8oIaPpPTEZRq6Hy1B0-45" value="CURSO" style="whiteSpace=wrap;html=1;align=center;" parent="1" vertex="1">
          <mxGeometry x="490" y="440" width="100" height="40" as="geometry" />
        </mxCell>
        <mxCell id="FF8oIaPpPTEZRq6Hy1B0-46" value="Geram" style="shape=rhombus;perimeter=rhombusPerimeter;whiteSpace=wrap;html=1;align=center;" parent="1" vertex="1">
          <mxGeometry x="600" y="260" width="120" height="60" as="geometry" />
        </mxCell>
        <mxCell id="FF8oIaPpPTEZRq6Hy1B0-47" value="" style="endArrow=none;html=1;rounded=0;entryX=0.25;entryY=1;entryDx=0;entryDy=0;exitX=1;exitY=0;exitDx=0;exitDy=0;" parent="1" source="FF8oIaPpPTEZRq6Hy1B0-46" target="FF8oIaPpPTEZRq6Hy1B0-29" edge="1">
          <mxGeometry relative="1" as="geometry">
            <mxPoint x="520" y="210" as="sourcePoint" />
            <mxPoint x="680" y="210" as="targetPoint" />
          </mxGeometry>
        </mxCell>
        <mxCell id="FF8oIaPpPTEZRq6Hy1B0-50" value="" style="endArrow=none;html=1;rounded=0;entryX=0.32;entryY=0;entryDx=0;entryDy=0;entryPerimeter=0;exitX=1;exitY=1;exitDx=0;exitDy=0;" parent="1" source="FF8oIaPpPTEZRq6Hy1B0-42" target="FF8oIaPpPTEZRq6Hy1B0-45" edge="1">
          <mxGeometry relative="1" as="geometry">
            <mxPoint x="520" y="210" as="sourcePoint" />
            <mxPoint x="680" y="210" as="targetPoint" />
          </mxGeometry>
        </mxCell>
        <mxCell id="FF8oIaPpPTEZRq6Hy1B0-55" value="Nome" style="ellipse;whiteSpace=wrap;html=1;align=center;fontStyle=4;" parent="1" vertex="1">
          <mxGeometry x="370" y="390" width="100" height="40" as="geometry" />
        </mxCell>
        <mxCell id="FF8oIaPpPTEZRq6Hy1B0-56" value="Descrição" style="ellipse;whiteSpace=wrap;html=1;align=center;" parent="1" vertex="1">
          <mxGeometry x="340" y="440" width="100" height="40" as="geometry" />
        </mxCell>
        <mxCell id="FF8oIaPpPTEZRq6Hy1B0-57" value="Nível" style="ellipse;whiteSpace=wrap;html=1;align=center;" parent="1" vertex="1">
          <mxGeometry x="370" y="490" width="100" height="40" as="geometry" />
        </mxCell>
        <mxCell id="FF8oIaPpPTEZRq6Hy1B0-58" value="Data de Lançamento" style="ellipse;whiteSpace=wrap;html=1;align=center;" parent="1" vertex="1">
          <mxGeometry x="610" y="490" width="100" height="40" as="geometry" />
        </mxCell>
        <mxCell id="FF8oIaPpPTEZRq6Hy1B0-59" value="Duração" style="ellipse;whiteSpace=wrap;html=1;align=center;" parent="1" vertex="1">
          <mxGeometry x="610" y="390" width="100" height="40" as="geometry" />
        </mxCell>
        <mxCell id="FF8oIaPpPTEZRq6Hy1B0-66" value="" style="endArrow=none;html=1;rounded=0;exitX=0.92;exitY=0.8;exitDx=0;exitDy=0;exitPerimeter=0;" parent="1" source="FF8oIaPpPTEZRq6Hy1B0-55" target="FF8oIaPpPTEZRq6Hy1B0-45" edge="1">
          <mxGeometry relative="1" as="geometry">
            <mxPoint x="420" y="410" as="sourcePoint" />
            <mxPoint x="580" y="410" as="targetPoint" />
          </mxGeometry>
        </mxCell>
        <mxCell id="FF8oIaPpPTEZRq6Hy1B0-67" value="" style="endArrow=none;html=1;rounded=0;exitX=1;exitY=0.5;exitDx=0;exitDy=0;entryX=0;entryY=0.5;entryDx=0;entryDy=0;" parent="1" source="FF8oIaPpPTEZRq6Hy1B0-56" target="FF8oIaPpPTEZRq6Hy1B0-45" edge="1">
          <mxGeometry relative="1" as="geometry">
            <mxPoint x="482" y="432" as="sourcePoint" />
            <mxPoint x="514" y="450" as="targetPoint" />
          </mxGeometry>
        </mxCell>
        <mxCell id="FF8oIaPpPTEZRq6Hy1B0-68" value="" style="endArrow=none;html=1;rounded=0;exitX=1;exitY=0;exitDx=0;exitDy=0;entryX=0.25;entryY=1;entryDx=0;entryDy=0;" parent="1" source="FF8oIaPpPTEZRq6Hy1B0-57" target="FF8oIaPpPTEZRq6Hy1B0-45" edge="1">
          <mxGeometry relative="1" as="geometry">
            <mxPoint x="492" y="442" as="sourcePoint" />
            <mxPoint x="524" y="460" as="targetPoint" />
          </mxGeometry>
        </mxCell>
        <mxCell id="FF8oIaPpPTEZRq6Hy1B0-69" value="" style="endArrow=none;html=1;rounded=0;exitX=1;exitY=0.25;exitDx=0;exitDy=0;entryX=0;entryY=1;entryDx=0;entryDy=0;" parent="1" source="FF8oIaPpPTEZRq6Hy1B0-45" target="FF8oIaPpPTEZRq6Hy1B0-59" edge="1">
          <mxGeometry relative="1" as="geometry">
            <mxPoint x="502" y="452" as="sourcePoint" />
            <mxPoint x="534" y="470" as="targetPoint" />
          </mxGeometry>
        </mxCell>
        <mxCell id="FF8oIaPpPTEZRq6Hy1B0-70" value="" style="endArrow=none;html=1;rounded=0;entryX=0;entryY=0;entryDx=0;entryDy=0;" parent="1" target="FF8oIaPpPTEZRq6Hy1B0-58" edge="1">
          <mxGeometry relative="1" as="geometry">
            <mxPoint x="570" y="480" as="sourcePoint" />
            <mxPoint x="544" y="480" as="targetPoint" />
          </mxGeometry>
        </mxCell>
        <mxCell id="FF8oIaPpPTEZRq6Hy1B0-71" value="" style="endArrow=none;html=1;rounded=0;entryX=0.75;entryY=0;entryDx=0;entryDy=0;exitX=0;exitY=1;exitDx=0;exitDy=0;" parent="1" source="FF8oIaPpPTEZRq6Hy1B0-46" target="FF8oIaPpPTEZRq6Hy1B0-45" edge="1">
          <mxGeometry relative="1" as="geometry">
            <mxPoint x="420" y="410" as="sourcePoint" />
            <mxPoint x="580" y="410" as="targetPoint" />
          </mxGeometry>
        </mxCell>
        <mxCell id="FF8oIaPpPTEZRq6Hy1B0-73" value="Ministram" style="shape=rhombus;perimeter=rhombusPerimeter;whiteSpace=wrap;html=1;align=center;" parent="1" vertex="1">
          <mxGeometry x="770" y="430" width="120" height="60" as="geometry" />
        </mxCell>
        <mxCell id="FF8oIaPpPTEZRq6Hy1B0-74" value="" style="endArrow=none;html=1;rounded=0;entryX=1;entryY=0.5;entryDx=0;entryDy=0;exitX=0;exitY=0.5;exitDx=0;exitDy=0;" parent="1" source="FF8oIaPpPTEZRq6Hy1B0-73" target="FF8oIaPpPTEZRq6Hy1B0-45" edge="1">
          <mxGeometry relative="1" as="geometry">
            <mxPoint x="750" y="410" as="sourcePoint" />
            <mxPoint x="910" y="410" as="targetPoint" />
          </mxGeometry>
        </mxCell>
        <mxCell id="FF8oIaPpPTEZRq6Hy1B0-76" value="PROFESSOR" style="whiteSpace=wrap;html=1;align=center;" parent="1" vertex="1">
          <mxGeometry x="1040" y="440" width="100" height="40" as="geometry" />
        </mxCell>
        <mxCell id="FF8oIaPpPTEZRq6Hy1B0-77" value="" style="endArrow=none;html=1;rounded=0;entryX=0;entryY=0.5;entryDx=0;entryDy=0;exitX=1;exitY=0.5;exitDx=0;exitDy=0;" parent="1" source="FF8oIaPpPTEZRq6Hy1B0-73" target="FF8oIaPpPTEZRq6Hy1B0-76" edge="1">
          <mxGeometry relative="1" as="geometry">
            <mxPoint x="880" y="410" as="sourcePoint" />
            <mxPoint x="1040" y="410" as="targetPoint" />
          </mxGeometry>
        </mxCell>
        <mxCell id="FF8oIaPpPTEZRq6Hy1B0-79" value="Nome" style="ellipse;whiteSpace=wrap;html=1;align=center;fontStyle=4;" parent="1" vertex="1">
          <mxGeometry x="950" y="500" width="100" height="40" as="geometry" />
        </mxCell>
        <mxCell id="FF8oIaPpPTEZRq6Hy1B0-80" value="Cursos Ministrados" style="ellipse;whiteSpace=wrap;html=1;align=center;" parent="1" vertex="1">
          <mxGeometry x="950" y="370" width="100" height="40" as="geometry" />
        </mxCell>
        <mxCell id="FF8oIaPpPTEZRq6Hy1B0-81" value="Especialização" style="ellipse;whiteSpace=wrap;html=1;align=center;" parent="1" vertex="1">
          <mxGeometry x="1100" y="500" width="100" height="40" as="geometry" />
        </mxCell>
        <mxCell id="FF8oIaPpPTEZRq6Hy1B0-82" value="Feedback dos Alunos" style="ellipse;whiteSpace=wrap;html=1;align=center;" parent="1" vertex="1">
          <mxGeometry x="1090" y="370" width="100" height="40" as="geometry" />
        </mxCell>
        <mxCell id="FF8oIaPpPTEZRq6Hy1B0-83" value="E-mail" style="ellipse;whiteSpace=wrap;html=1;align=center;" parent="1" vertex="1">
          <mxGeometry x="1190" y="440" width="100" height="40" as="geometry" />
        </mxCell>
        <mxCell id="FF8oIaPpPTEZRq6Hy1B0-84" value="" style="endArrow=none;html=1;rounded=0;exitX=0.5;exitY=1;exitDx=0;exitDy=0;entryX=0.25;entryY=0;entryDx=0;entryDy=0;" parent="1" source="FF8oIaPpPTEZRq6Hy1B0-80" target="FF8oIaPpPTEZRq6Hy1B0-76" edge="1">
          <mxGeometry relative="1" as="geometry">
            <mxPoint x="1040" y="410" as="sourcePoint" />
            <mxPoint x="1200" y="410" as="targetPoint" />
          </mxGeometry>
        </mxCell>
        <mxCell id="FF8oIaPpPTEZRq6Hy1B0-85" value="" style="endArrow=none;html=1;rounded=0;exitX=0.5;exitY=1;exitDx=0;exitDy=0;entryX=0.75;entryY=0;entryDx=0;entryDy=0;" parent="1" source="FF8oIaPpPTEZRq6Hy1B0-82" target="FF8oIaPpPTEZRq6Hy1B0-76" edge="1">
          <mxGeometry relative="1" as="geometry">
            <mxPoint x="1010" y="420" as="sourcePoint" />
            <mxPoint x="1075" y="450" as="targetPoint" />
          </mxGeometry>
        </mxCell>
        <mxCell id="FF8oIaPpPTEZRq6Hy1B0-86" value="" style="endArrow=none;html=1;rounded=0;exitX=0;exitY=0.5;exitDx=0;exitDy=0;" parent="1" source="FF8oIaPpPTEZRq6Hy1B0-83" edge="1">
          <mxGeometry relative="1" as="geometry">
            <mxPoint x="1020" y="430" as="sourcePoint" />
            <mxPoint x="1140" y="460" as="targetPoint" />
          </mxGeometry>
        </mxCell>
        <mxCell id="FF8oIaPpPTEZRq6Hy1B0-87" value="" style="endArrow=none;html=1;rounded=0;exitX=0.75;exitY=1;exitDx=0;exitDy=0;entryX=0.5;entryY=0;entryDx=0;entryDy=0;" parent="1" source="FF8oIaPpPTEZRq6Hy1B0-76" target="FF8oIaPpPTEZRq6Hy1B0-81" edge="1">
          <mxGeometry relative="1" as="geometry">
            <mxPoint x="1030" y="440" as="sourcePoint" />
            <mxPoint x="1095" y="470" as="targetPoint" />
          </mxGeometry>
        </mxCell>
        <mxCell id="FF8oIaPpPTEZRq6Hy1B0-88" value="" style="endArrow=none;html=1;rounded=0;exitX=0.25;exitY=1;exitDx=0;exitDy=0;entryX=0.5;entryY=0;entryDx=0;entryDy=0;" parent="1" source="FF8oIaPpPTEZRq6Hy1B0-76" target="FF8oIaPpPTEZRq6Hy1B0-79" edge="1">
          <mxGeometry relative="1" as="geometry">
            <mxPoint x="1040" y="450" as="sourcePoint" />
            <mxPoint x="1105" y="480" as="targetPoint" />
          </mxGeometry>
        </mxCell>
        <mxCell id="FF8oIaPpPTEZRq6Hy1B0-90" value="MÓDULO" style="whiteSpace=wrap;html=1;align=center;" parent="1" vertex="1">
          <mxGeometry x="490" y="720" width="100" height="40" as="geometry" />
        </mxCell>
        <mxCell id="FF8oIaPpPTEZRq6Hy1B0-93" value="" style="endArrow=none;html=1;rounded=0;entryX=0.5;entryY=1;entryDx=0;entryDy=0;exitX=0.5;exitY=0;exitDx=0;exitDy=0;" parent="1" source="ZqRqDsZm8Zl12EE3CjOA-7" target="FF8oIaPpPTEZRq6Hy1B0-45" edge="1">
          <mxGeometry relative="1" as="geometry">
            <mxPoint x="540" y="580" as="sourcePoint" />
            <mxPoint x="610" y="610" as="targetPoint" />
          </mxGeometry>
        </mxCell>
        <mxCell id="FF8oIaPpPTEZRq6Hy1B0-95" value="Ordem dentro do curso" style="ellipse;whiteSpace=wrap;html=1;align=center;" parent="1" vertex="1">
          <mxGeometry x="370" y="680" width="100" height="40" as="geometry" />
        </mxCell>
        <mxCell id="FF8oIaPpPTEZRq6Hy1B0-96" value="Descrição" style="ellipse;whiteSpace=wrap;html=1;align=center;" parent="1" vertex="1">
          <mxGeometry x="370" y="780" width="100" height="40" as="geometry" />
        </mxCell>
        <mxCell id="FF8oIaPpPTEZRq6Hy1B0-99" value="" style="endArrow=none;html=1;rounded=0;exitX=1;exitY=0;exitDx=0;exitDy=0;entryX=0;entryY=1;entryDx=0;entryDy=0;" parent="1" source="FF8oIaPpPTEZRq6Hy1B0-96" target="FF8oIaPpPTEZRq6Hy1B0-90" edge="1">
          <mxGeometry relative="1" as="geometry">
            <mxPoint x="450" y="810" as="sourcePoint" />
            <mxPoint x="610" y="810" as="targetPoint" />
          </mxGeometry>
        </mxCell>
        <mxCell id="FF8oIaPpPTEZRq6Hy1B0-100" value="" style="endArrow=none;html=1;rounded=0;exitX=0;exitY=0.25;exitDx=0;exitDy=0;entryX=1;entryY=1;entryDx=0;entryDy=0;" parent="1" source="FF8oIaPpPTEZRq6Hy1B0-90" target="FF8oIaPpPTEZRq6Hy1B0-95" edge="1">
          <mxGeometry relative="1" as="geometry">
            <mxPoint x="465" y="796" as="sourcePoint" />
            <mxPoint x="500" y="770" as="targetPoint" />
          </mxGeometry>
        </mxCell>
        <mxCell id="FF8oIaPpPTEZRq6Hy1B0-101" value="" style="endArrow=none;html=1;rounded=0;exitX=1;exitY=0.25;exitDx=0;exitDy=0;entryX=0;entryY=1;entryDx=0;entryDy=0;" parent="1" source="FF8oIaPpPTEZRq6Hy1B0-90" edge="1">
          <mxGeometry relative="1" as="geometry">
            <mxPoint x="475" y="806" as="sourcePoint" />
            <mxPoint x="624.6446609406726" y="714.1421356237308" as="targetPoint" />
          </mxGeometry>
        </mxCell>
        <mxCell id="FF8oIaPpPTEZRq6Hy1B0-103" value="Contém" style="shape=rhombus;perimeter=rhombusPerimeter;whiteSpace=wrap;html=1;align=center;" parent="1" vertex="1">
          <mxGeometry x="480" y="860" width="120" height="60" as="geometry" />
        </mxCell>
        <mxCell id="FF8oIaPpPTEZRq6Hy1B0-104" value="" style="endArrow=none;html=1;rounded=0;entryX=0.5;entryY=1;entryDx=0;entryDy=0;exitX=0.5;exitY=0;exitDx=0;exitDy=0;" parent="1" source="FF8oIaPpPTEZRq6Hy1B0-103" target="FF8oIaPpPTEZRq6Hy1B0-90" edge="1">
          <mxGeometry relative="1" as="geometry">
            <mxPoint x="450" y="910" as="sourcePoint" />
            <mxPoint x="610" y="910" as="targetPoint" />
          </mxGeometry>
        </mxCell>
        <mxCell id="FF8oIaPpPTEZRq6Hy1B0-105" value="" style="resizable=0;html=1;whiteSpace=wrap;align=right;verticalAlign=bottom;" parent="FF8oIaPpPTEZRq6Hy1B0-104" connectable="0" vertex="1">
          <mxGeometry x="1" relative="1" as="geometry" />
        </mxCell>
        <mxCell id="FF8oIaPpPTEZRq6Hy1B0-106" value="AULA" style="whiteSpace=wrap;html=1;align=center;" parent="1" vertex="1">
          <mxGeometry x="490" y="1010" width="100" height="40" as="geometry" />
        </mxCell>
        <mxCell id="FF8oIaPpPTEZRq6Hy1B0-109" value="Ordem dentro do Módulo" style="ellipse;whiteSpace=wrap;html=1;align=center;" parent="1" vertex="1">
          <mxGeometry x="610" y="970" width="100" height="40" as="geometry" />
        </mxCell>
        <mxCell id="FF8oIaPpPTEZRq6Hy1B0-110" value="Tipo (vídeo ou texto)" style="ellipse;whiteSpace=wrap;html=1;align=center;" parent="1" vertex="1">
          <mxGeometry x="490" y="1080" width="100" height="40" as="geometry" />
        </mxCell>
        <mxCell id="FF8oIaPpPTEZRq6Hy1B0-111" value="Descrição" style="ellipse;whiteSpace=wrap;html=1;align=center;" parent="1" vertex="1">
          <mxGeometry x="370" y="970" width="100" height="40" as="geometry" />
        </mxCell>
        <mxCell id="FF8oIaPpPTEZRq6Hy1B0-112" value="Duração" style="ellipse;whiteSpace=wrap;html=1;align=center;" parent="1" vertex="1">
          <mxGeometry x="370" y="1040" width="100" height="40" as="geometry" />
        </mxCell>
        <mxCell id="FF8oIaPpPTEZRq6Hy1B0-115" value="" style="endArrow=none;html=1;rounded=0;exitX=1;exitY=0.5;exitDx=0;exitDy=0;entryX=0.25;entryY=0;entryDx=0;entryDy=0;" parent="1" source="FF8oIaPpPTEZRq6Hy1B0-111" target="FF8oIaPpPTEZRq6Hy1B0-106" edge="1">
          <mxGeometry relative="1" as="geometry">
            <mxPoint x="450" y="810" as="sourcePoint" />
            <mxPoint x="610" y="810" as="targetPoint" />
          </mxGeometry>
        </mxCell>
        <mxCell id="FF8oIaPpPTEZRq6Hy1B0-116" value="" style="endArrow=none;html=1;rounded=0;exitX=1;exitY=0.5;exitDx=0;exitDy=0;entryX=0.25;entryY=1;entryDx=0;entryDy=0;" parent="1" source="FF8oIaPpPTEZRq6Hy1B0-112" target="FF8oIaPpPTEZRq6Hy1B0-106" edge="1">
          <mxGeometry relative="1" as="geometry">
            <mxPoint x="480" y="1000" as="sourcePoint" />
            <mxPoint x="525" y="1020" as="targetPoint" />
          </mxGeometry>
        </mxCell>
        <mxCell id="FF8oIaPpPTEZRq6Hy1B0-117" value="" style="endArrow=none;html=1;rounded=0;exitX=0.5;exitY=1;exitDx=0;exitDy=0;entryX=0.5;entryY=0;entryDx=0;entryDy=0;" parent="1" source="FF8oIaPpPTEZRq6Hy1B0-106" target="FF8oIaPpPTEZRq6Hy1B0-110" edge="1">
          <mxGeometry relative="1" as="geometry">
            <mxPoint x="490" y="1010" as="sourcePoint" />
            <mxPoint x="535" y="1030" as="targetPoint" />
          </mxGeometry>
        </mxCell>
        <mxCell id="FF8oIaPpPTEZRq6Hy1B0-118" value="" style="endArrow=none;html=1;rounded=0;exitX=0.75;exitY=1;exitDx=0;exitDy=0;" parent="1" source="FF8oIaPpPTEZRq6Hy1B0-106" edge="1">
          <mxGeometry relative="1" as="geometry">
            <mxPoint x="500" y="1020" as="sourcePoint" />
            <mxPoint x="615.754088880903" y="1060.685071343348" as="targetPoint" />
          </mxGeometry>
        </mxCell>
        <mxCell id="FF8oIaPpPTEZRq6Hy1B0-119" value="" style="endArrow=none;html=1;rounded=0;exitX=0.75;exitY=0;exitDx=0;exitDy=0;entryX=0;entryY=0.5;entryDx=0;entryDy=0;" parent="1" source="FF8oIaPpPTEZRq6Hy1B0-106" target="FF8oIaPpPTEZRq6Hy1B0-109" edge="1">
          <mxGeometry relative="1" as="geometry">
            <mxPoint x="510" y="1030" as="sourcePoint" />
            <mxPoint x="555" y="1050" as="targetPoint" />
          </mxGeometry>
        </mxCell>
        <mxCell id="FF8oIaPpPTEZRq6Hy1B0-120" value="Nome" style="ellipse;whiteSpace=wrap;html=1;align=center;fontStyle=4;" parent="1" vertex="1">
          <mxGeometry x="610" y="1040" width="100" height="40" as="geometry" />
        </mxCell>
        <mxCell id="FF8oIaPpPTEZRq6Hy1B0-121" value="Nome" style="ellipse;whiteSpace=wrap;html=1;align=center;fontStyle=4;" parent="1" vertex="1">
          <mxGeometry x="610" y="680" width="100" height="40" as="geometry" />
        </mxCell>
        <mxCell id="FF8oIaPpPTEZRq6Hy1B0-122" value="EMPRESA" style="whiteSpace=wrap;html=1;align=center;" parent="1" vertex="1">
          <mxGeometry x="40" y="590" width="100" height="40" as="geometry" />
        </mxCell>
        <mxCell id="FF8oIaPpPTEZRq6Hy1B0-123" value="Nome" style="ellipse;whiteSpace=wrap;html=1;align=center;fontStyle=4;" parent="1" vertex="1">
          <mxGeometry x="-80" y="620" width="100" height="40" as="geometry" />
        </mxCell>
        <mxCell id="FF8oIaPpPTEZRq6Hy1B0-124" value="Setor" style="ellipse;whiteSpace=wrap;html=1;align=center;" parent="1" vertex="1">
          <mxGeometry x="170" y="630" width="100" height="40" as="geometry" />
        </mxCell>
        <mxCell id="FF8oIaPpPTEZRq6Hy1B0-125" value="Localização" style="ellipse;whiteSpace=wrap;html=1;align=center;" parent="1" vertex="1">
          <mxGeometry x="40" y="650" width="100" height="40" as="geometry" />
        </mxCell>
        <mxCell id="FF8oIaPpPTEZRq6Hy1B0-126" value="VAGA" style="whiteSpace=wrap;html=1;align=center;" parent="1" vertex="1">
          <mxGeometry x="70" y="340" width="100" height="40" as="geometry" />
        </mxCell>
        <mxCell id="FF8oIaPpPTEZRq6Hy1B0-128" value="" style="endArrow=none;html=1;rounded=0;entryX=0.5;entryY=0;entryDx=0;entryDy=0;exitX=0.5;exitY=1;exitDx=0;exitDy=0;" parent="1" source="FF8oIaPpPTEZRq6Hy1B0-137" target="FF8oIaPpPTEZRq6Hy1B0-122" edge="1">
          <mxGeometry relative="1" as="geometry">
            <mxPoint x="-10" y="525" as="sourcePoint" />
            <mxPoint x="170" y="460" as="targetPoint" />
          </mxGeometry>
        </mxCell>
        <mxCell id="FF8oIaPpPTEZRq6Hy1B0-130" value="" style="endArrow=none;html=1;rounded=0;entryX=0.5;entryY=1;entryDx=0;entryDy=0;exitX=0.5;exitY=0;exitDx=0;exitDy=0;" parent="1" source="FF8oIaPpPTEZRq6Hy1B0-137" target="FF8oIaPpPTEZRq6Hy1B0-126" edge="1">
          <mxGeometry relative="1" as="geometry">
            <mxPoint x="44" y="490.98" as="sourcePoint" />
            <mxPoint x="-60" y="590" as="targetPoint" />
          </mxGeometry>
        </mxCell>
        <mxCell id="FF8oIaPpPTEZRq6Hy1B0-132" value="" style="endArrow=none;html=1;rounded=0;entryX=1;entryY=0;entryDx=0;entryDy=0;exitX=0;exitY=0.5;exitDx=0;exitDy=0;" parent="1" source="FF8oIaPpPTEZRq6Hy1B0-122" target="FF8oIaPpPTEZRq6Hy1B0-123" edge="1">
          <mxGeometry relative="1" as="geometry">
            <mxPoint x="10" y="460" as="sourcePoint" />
            <mxPoint x="170" y="460" as="targetPoint" />
          </mxGeometry>
        </mxCell>
        <mxCell id="FF8oIaPpPTEZRq6Hy1B0-133" value="" style="endArrow=none;html=1;rounded=0;entryX=0.5;entryY=0;entryDx=0;entryDy=0;exitX=0.5;exitY=1;exitDx=0;exitDy=0;" parent="1" source="FF8oIaPpPTEZRq6Hy1B0-122" target="FF8oIaPpPTEZRq6Hy1B0-125" edge="1">
          <mxGeometry relative="1" as="geometry">
            <mxPoint x="-110" y="610" as="sourcePoint" />
            <mxPoint x="-145" y="626" as="targetPoint" />
          </mxGeometry>
        </mxCell>
        <mxCell id="FF8oIaPpPTEZRq6Hy1B0-134" value="" style="endArrow=none;html=1;rounded=0;entryX=0;entryY=0;entryDx=0;entryDy=0;exitX=1;exitY=0.5;exitDx=0;exitDy=0;" parent="1" source="FF8oIaPpPTEZRq6Hy1B0-122" target="FF8oIaPpPTEZRq6Hy1B0-124" edge="1">
          <mxGeometry relative="1" as="geometry">
            <mxPoint x="-60" y="630" as="sourcePoint" />
            <mxPoint x="-60" y="650" as="targetPoint" />
          </mxGeometry>
        </mxCell>
        <mxCell id="FF8oIaPpPTEZRq6Hy1B0-137" value="Oferecem" style="shape=rhombus;double=1;perimeter=rhombusPerimeter;whiteSpace=wrap;html=1;align=center;" parent="1" vertex="1">
          <mxGeometry x="30" y="460" width="120" height="60" as="geometry" />
        </mxCell>
        <mxCell id="FF8oIaPpPTEZRq6Hy1B0-138" value="&lt;span style=&quot;border-bottom: 1px dotted&quot;&gt;Empresa&lt;/span&gt;" style="ellipse;whiteSpace=wrap;html=1;align=center;" parent="1" vertex="1">
          <mxGeometry x="-50" y="370" width="100" height="40" as="geometry" />
        </mxCell>
        <mxCell id="FF8oIaPpPTEZRq6Hy1B0-139" value="Certificações Necessárias" style="ellipse;whiteSpace=wrap;html=1;align=center;" parent="1" vertex="1">
          <mxGeometry x="-60" y="310" width="100" height="40" as="geometry" />
        </mxCell>
        <mxCell id="FF8oIaPpPTEZRq6Hy1B0-140" value="Descrição" style="ellipse;whiteSpace=wrap;html=1;align=center;" parent="1" vertex="1">
          <mxGeometry x="150" y="400" width="100" height="40" as="geometry" />
        </mxCell>
        <mxCell id="FF8oIaPpPTEZRq6Hy1B0-141" value="Habilidades Necessárias" style="ellipse;whiteSpace=wrap;html=1;align=center;" parent="1" vertex="1">
          <mxGeometry x="210" y="340" width="100" height="40" as="geometry" />
        </mxCell>
        <mxCell id="FF8oIaPpPTEZRq6Hy1B0-142" value="Se qualificam a" style="shape=rhombus;perimeter=rhombusPerimeter;whiteSpace=wrap;html=1;align=center;" parent="1" vertex="1">
          <mxGeometry x="110" y="250" width="120" height="60" as="geometry" />
        </mxCell>
        <mxCell id="FF8oIaPpPTEZRq6Hy1B0-143" value="" style="endArrow=none;html=1;rounded=0;exitX=1;exitY=0.5;exitDx=0;exitDy=0;entryX=0.25;entryY=1;entryDx=0;entryDy=0;" parent="1" source="FF8oIaPpPTEZRq6Hy1B0-138" target="FF8oIaPpPTEZRq6Hy1B0-126" edge="1">
          <mxGeometry relative="1" as="geometry">
            <mxPoint x="170" y="420" as="sourcePoint" />
            <mxPoint x="330" y="420" as="targetPoint" />
          </mxGeometry>
        </mxCell>
        <mxCell id="FF8oIaPpPTEZRq6Hy1B0-144" value="" style="endArrow=none;html=1;rounded=0;exitX=1;exitY=0.5;exitDx=0;exitDy=0;entryX=0.25;entryY=0;entryDx=0;entryDy=0;" parent="1" source="FF8oIaPpPTEZRq6Hy1B0-139" target="FF8oIaPpPTEZRq6Hy1B0-126" edge="1">
          <mxGeometry relative="1" as="geometry">
            <mxPoint x="60" y="400" as="sourcePoint" />
            <mxPoint x="105" y="390" as="targetPoint" />
          </mxGeometry>
        </mxCell>
        <mxCell id="FF8oIaPpPTEZRq6Hy1B0-145" value="" style="endArrow=none;html=1;rounded=0;exitX=0;exitY=0.5;exitDx=0;exitDy=0;entryX=1;entryY=0.5;entryDx=0;entryDy=0;" parent="1" source="FF8oIaPpPTEZRq6Hy1B0-141" target="FF8oIaPpPTEZRq6Hy1B0-126" edge="1">
          <mxGeometry relative="1" as="geometry">
            <mxPoint x="70" y="410" as="sourcePoint" />
            <mxPoint x="115" y="400" as="targetPoint" />
          </mxGeometry>
        </mxCell>
        <mxCell id="FF8oIaPpPTEZRq6Hy1B0-146" value="" style="endArrow=none;html=1;rounded=0;exitX=0.75;exitY=1;exitDx=0;exitDy=0;entryX=0;entryY=0;entryDx=0;entryDy=0;" parent="1" source="FF8oIaPpPTEZRq6Hy1B0-126" target="FF8oIaPpPTEZRq6Hy1B0-140" edge="1">
          <mxGeometry relative="1" as="geometry">
            <mxPoint x="80" y="420" as="sourcePoint" />
            <mxPoint x="125" y="410" as="targetPoint" />
          </mxGeometry>
        </mxCell>
        <mxCell id="FF8oIaPpPTEZRq6Hy1B0-147" value="" style="endArrow=none;html=1;rounded=0;entryX=0.5;entryY=1;entryDx=0;entryDy=0;exitX=0.5;exitY=0;exitDx=0;exitDy=0;" parent="1" source="FF8oIaPpPTEZRq6Hy1B0-142" target="FF8oIaPpPTEZRq6Hy1B0-1" edge="1">
          <mxGeometry relative="1" as="geometry">
            <mxPoint x="170" y="420" as="sourcePoint" />
            <mxPoint x="330" y="420" as="targetPoint" />
          </mxGeometry>
        </mxCell>
        <mxCell id="FF8oIaPpPTEZRq6Hy1B0-148" value="N" style="resizable=0;html=1;whiteSpace=wrap;align=right;verticalAlign=bottom;" parent="FF8oIaPpPTEZRq6Hy1B0-147" connectable="0" vertex="1">
          <mxGeometry x="1" relative="1" as="geometry" />
        </mxCell>
        <mxCell id="FF8oIaPpPTEZRq6Hy1B0-149" value="" style="endArrow=none;html=1;rounded=0;entryX=0.5;entryY=0;entryDx=0;entryDy=0;exitX=0;exitY=1;exitDx=0;exitDy=0;" parent="1" source="FF8oIaPpPTEZRq6Hy1B0-142" target="FF8oIaPpPTEZRq6Hy1B0-126" edge="1">
          <mxGeometry relative="1" as="geometry">
            <mxPoint x="147" y="290" as="sourcePoint" />
            <mxPoint x="330" y="420" as="targetPoint" />
          </mxGeometry>
        </mxCell>
        <mxCell id="FF8oIaPpPTEZRq6Hy1B0-151" value="Nome" style="ellipse;whiteSpace=wrap;html=1;align=center;fontStyle=4;" parent="1" vertex="1">
          <mxGeometry x="80" y="180" width="100" height="40" as="geometry" />
        </mxCell>
        <mxCell id="ZqRqDsZm8Zl12EE3CjOA-3" value="" style="shape=link;html=1;rounded=0;entryX=0.5;entryY=0;entryDx=0;entryDy=0;exitX=0.5;exitY=1;exitDx=0;exitDy=0;" edge="1" parent="1" source="ZqRqDsZm8Zl12EE3CjOA-7" target="FF8oIaPpPTEZRq6Hy1B0-90">
          <mxGeometry relative="1" as="geometry">
            <mxPoint x="540" y="640" as="sourcePoint" />
            <mxPoint x="640" y="840" as="targetPoint" />
          </mxGeometry>
        </mxCell>
        <mxCell id="ZqRqDsZm8Zl12EE3CjOA-5" value="" style="shape=link;html=1;rounded=0;entryX=0.5;entryY=0;entryDx=0;entryDy=0;exitX=0.5;exitY=1;exitDx=0;exitDy=0;" edge="1" parent="1" source="FF8oIaPpPTEZRq6Hy1B0-103" target="FF8oIaPpPTEZRq6Hy1B0-106">
          <mxGeometry relative="1" as="geometry">
            <mxPoint x="660" y="760" as="sourcePoint" />
            <mxPoint x="820" y="760" as="targetPoint" />
          </mxGeometry>
        </mxCell>
        <mxCell id="ZqRqDsZm8Zl12EE3CjOA-7" value="Contém" style="shape=rhombus;perimeter=rhombusPerimeter;whiteSpace=wrap;html=1;align=center;" vertex="1" parent="1">
          <mxGeometry x="480" y="580" width="120" height="60" as="geometry" />
        </mxCell>
        <mxCell id="ZqRqDsZm8Zl12EE3CjOA-8" value="(1,1)" style="text;html=1;align=center;verticalAlign=middle;resizable=0;points=[];autosize=1;strokeColor=none;fillColor=none;" vertex="1" parent="1">
          <mxGeometry x="365" y="120" width="50" height="30" as="geometry" />
        </mxCell>
        <mxCell id="ZqRqDsZm8Zl12EE3CjOA-9" value="(0,N)" style="text;html=1;align=center;verticalAlign=middle;resizable=0;points=[];autosize=1;strokeColor=none;fillColor=none;" vertex="1" parent="1">
          <mxGeometry x="630" y="120" width="50" height="30" as="geometry" />
        </mxCell>
        <mxCell id="ZqRqDsZm8Zl12EE3CjOA-10" value="(1,N)" style="text;html=1;align=center;verticalAlign=middle;resizable=0;points=[];autosize=1;strokeColor=none;fillColor=none;" vertex="1" parent="1">
          <mxGeometry x="340" y="200" width="50" height="30" as="geometry" />
        </mxCell>
        <mxCell id="ZqRqDsZm8Zl12EE3CjOA-11" value="(1,N)" style="text;html=1;align=center;verticalAlign=middle;resizable=0;points=[];autosize=1;strokeColor=none;fillColor=none;" vertex="1" parent="1">
          <mxGeometry x="480" y="350" width="50" height="30" as="geometry" />
        </mxCell>
        <mxCell id="ZqRqDsZm8Zl12EE3CjOA-12" value="(1,1)" style="text;html=1;align=center;verticalAlign=middle;resizable=0;points=[];autosize=1;strokeColor=none;fillColor=none;" vertex="1" parent="1">
          <mxGeometry x="655" y="210" width="50" height="30" as="geometry" />
        </mxCell>
        <mxCell id="ZqRqDsZm8Zl12EE3CjOA-13" value="(1,1)" style="text;html=1;align=center;verticalAlign=middle;resizable=0;points=[];autosize=1;strokeColor=none;fillColor=none;" vertex="1" parent="1">
          <mxGeometry x="550" y="350" width="50" height="30" as="geometry" />
        </mxCell>
        <mxCell id="ZqRqDsZm8Zl12EE3CjOA-14" value="(0,N)" style="text;html=1;align=center;verticalAlign=middle;resizable=0;points=[];autosize=1;strokeColor=none;fillColor=none;" vertex="1" parent="1">
          <mxGeometry x="200" y="205" width="50" height="30" as="geometry" />
        </mxCell>
        <mxCell id="ZqRqDsZm8Zl12EE3CjOA-15" value="(1,N)" style="text;html=1;align=center;verticalAlign=middle;resizable=0;points=[];autosize=1;strokeColor=none;fillColor=none;" vertex="1" parent="1">
          <mxGeometry x="120" y="310" width="50" height="30" as="geometry" />
        </mxCell>
        <mxCell id="ZqRqDsZm8Zl12EE3CjOA-16" value="(1,N)" style="text;html=1;align=center;verticalAlign=middle;resizable=0;points=[];autosize=1;strokeColor=none;fillColor=none;" vertex="1" parent="1">
          <mxGeometry x="95" y="430" width="50" height="30" as="geometry" />
        </mxCell>
        <mxCell id="ZqRqDsZm8Zl12EE3CjOA-17" value="(1,N)" style="text;html=1;align=center;verticalAlign=middle;resizable=0;points=[];autosize=1;strokeColor=none;fillColor=none;" vertex="1" parent="1">
          <mxGeometry x="90" y="540" width="50" height="30" as="geometry" />
        </mxCell>
        <mxCell id="ZqRqDsZm8Zl12EE3CjOA-18" value="(1,N)" style="text;html=1;align=center;verticalAlign=middle;resizable=0;points=[];autosize=1;strokeColor=none;fillColor=none;" vertex="1" parent="1">
          <mxGeometry x="540" y="530" width="50" height="30" as="geometry" />
        </mxCell>
        <mxCell id="ZqRqDsZm8Zl12EE3CjOA-19" value="(1,N)" style="text;html=1;align=center;verticalAlign=middle;resizable=0;points=[];autosize=1;strokeColor=none;fillColor=none;" vertex="1" parent="1">
          <mxGeometry x="540" y="660" width="50" height="30" as="geometry" />
        </mxCell>
        <mxCell id="ZqRqDsZm8Zl12EE3CjOA-22" value="(1,N)" style="text;html=1;align=center;verticalAlign=middle;resizable=0;points=[];autosize=1;strokeColor=none;fillColor=none;" vertex="1" parent="1">
          <mxGeometry x="540" y="800" width="50" height="30" as="geometry" />
        </mxCell>
        <mxCell id="ZqRqDsZm8Zl12EE3CjOA-23" value="(1,N)" style="text;html=1;align=center;verticalAlign=middle;resizable=0;points=[];autosize=1;strokeColor=none;fillColor=none;" vertex="1" parent="1">
          <mxGeometry x="540" y="950" width="50" height="30" as="geometry" />
        </mxCell>
        <mxCell id="ZqRqDsZm8Zl12EE3CjOA-24" value="(1,N)" style="text;html=1;align=center;verticalAlign=middle;resizable=0;points=[];autosize=1;strokeColor=none;fillColor=none;" vertex="1" parent="1">
          <mxGeometry x="670" y="430" width="50" height="30" as="geometry" />
        </mxCell>
        <mxCell id="ZqRqDsZm8Zl12EE3CjOA-25" value="(1,N)" style="text;html=1;align=center;verticalAlign=middle;resizable=0;points=[];autosize=1;strokeColor=none;fillColor=none;" vertex="1" parent="1">
          <mxGeometry x="930" y="430" width="50" height="30" as="geometry" />
        </mxCell>
      </root>
    </mxGraphModel>
  </diagram>
</mxfile>
